<?xml version="1.0" standalone="no"?>
<svg xmlns="http://www.w3.org/2000/svg" viewBox="0 0 1440 320">
  <defs>
    <linearGradient id="grad1" x1="0%" y1="0%" x2="100%" y2="0%">
      <stop offset="0%" style="stop-color:#5000ca;stop-opacity:1" />
      <stop offset="100%" style="stop-color:#9a00ff;stop-opacity:1" />
    </linearGradient>
  </defs>
  <path fill="url(#grad1)" d="M0,32L48,64C96,96,192,160,288,197.3C384,235,480,245,576,229.3C672,213,768,171,864,176C960,181,1056,235,1152,245.3C1248,256,1344,224,1392,208L1440,192L1440,0L1392,0C1344,0,1248,0,1152,0C1056,0,960,0,864,0C768,0,672,0,576,0C480,0,384,0,288,0C192,0,96,0,48,0L0,0Z"></path>
  <text x="50%" y="30%" text-anchor="middle" alignment-baseline="middle" fill="#FFFFFF" font-size="48" font-weight="bold" font-family="Arial, sans-serif">
    Hi, I'm Ignatius
  </text>
</svg>
